<?xml version="1.0" encoding="UTF-8"?>
<svg id="Layer_1" data-name="Layer 1" xmlns="http://www.w3.org/2000/svg" version="1.1" viewBox="0 0 5664 2000">
  <defs>
    <style>
      .cls-1 {
        isolation: isolate;
      }

      .cls-2 {
        fill: none;
        stroke: #5a5099;
        stroke-miterlimit: 10;
        stroke-width: 30px;
      }

      .cls-3 {
        fill: #5a5099;
        stroke-width: 0px;
      }
    </style>
  </defs>
  <path class="cls-3" d="M2795.9,1466.7c1.3-85.7-11.3-180.1-26.3-274.1-19.2-119.9-45.9-238.3-76.9-355.6-40.7-154.1-85.5-306.8-157.2-450.3-36.3-72.8-82.1-137.5-146.8-188.1-86.3-67.6-185.5-87-291.7-78.7-55.5,4.4-108.1,19.2-152.9,55.1-32.7,26.3-70.6,41.3-112.4,42.2-248.7,5.3-497.5,1.5-746.3,2.3-46.6.1-89-11.5-125.7-39.8-60.7-46.9-130.6-60.4-204.9-61.4-141.8-1.8-253.9,55.7-337.6,168.8-55.4,74.9-92.3,159.7-124.4,246.3-67.7,182.8-115.2,371.2-152.1,562.4-29.7,153.8-53.2,308.2-40.4,465.8,5.3,65.5,18.7,128.9,49.6,187.6,55.1,104.7,173.6,156.2,282.6,122.3,76.6-23.8,135.4-73.7,187.2-132.8,80.8-92.2,154.9-189.8,231.7-285.2,44.6-55.4,101-90.9,174.6-91,276.7-.3,553.5,0,830.2-.2,74.7,0,134.3,31.5,180.8,87.8,57.2,69.3,111.9,140.6,169,209.9,46.7,56.7,92,115.1,152.4,158.7,46.9,33.9,97.5,60.8,156.5,62.4,109.5,3,186.9-49.9,234.1-146.4,39.8-81.2,48.1-169.1,46.9-268.1h0ZM810.6,744.7c-17.4-.6-25,3.9-23.5,22.6,1.5,18.9.3,38.1.3,57.2s.2,36.8,0,55.2c-.4,23.2-10.3,32.7-34,32.9-25.2,0-50.4.2-75.6,0-21.5-.2-29.8-7.5-30.3-29.1-.8-38.8-1-77.6-.3-116.4.3-16.7-4.9-22.8-22.2-22.3-38.1,1.1-76.3.5-114.4.3-21.4,0-29.7-8.1-30.1-29.3-.4-25.2-.3-50.4,0-75.6.3-25.6,8.9-34.3,34.1-34.4,37.5-.2,74.9-.6,112.4.2,15,.3,20.5-4,20.1-19.6-.9-38.1-.4-76.3,0-114.4.2-26.3,8.1-33.8,34.3-33.9,24.5,0,49-.2,73.5,0,22.5.2,32.3,9.8,32.5,32.2.3,37.5.9,74.9-.2,112.3-.5,17.5,4,24.2,22.6,23.5,35.4-1.4,70.8-.6,106.2-.4,24.3.2,34.8,10.6,35,34.6.2,23.2.2,46.3,0,69.5-.2,25.3-10.4,35.2-36.2,35.3-34.7.2-69.5.9-104.2-.2v-.2ZM1064.1,1249c-81.1,0-145.5-64.2-145.6-144.9,0-77.2,69.1-150,141.6-149.1,82.7,1,148.8,67.7,148.6,150-.2,78.7-65.9,144.1-144.6,143.9h0ZM1830.1,1249.2c-81.1,0-147.6-66.1-147-145.6.6-77.9,67.2-147.3,141.9-147.9,82.1-.7,148.9,67.6,148.4,151.5-.5,77.6-65.7,142.2-143.3,142.1h0ZM1981.1,745c-47.9,0-85.5-38.7-85.5-87.9s38.8-84.1,84.7-84.2c47.7-.2,84,35.6,84.6,83.2.6,50-36.1,88.9-83.8,88.9h0ZM2179.4,941.3c-48.3,0-84.6-37.7-84.7-87.9-.1-44.9,37.9-83.2,83-83.6,47.6-.5,86.4,39,86.1,87.5-.3,46.1-38.4,84-84.4,84h0ZM2178.9,548.2c-47.4-.7-83.6-39.6-83.6-89.7s37.2-83.1,84.7-83.8c46.9-.7,84.8,37.7,84.6,85.6-.2,48.4-39.3,88.5-85.7,87.8h0ZM2379.8,744.9c-48-.2-83.9-38.4-83.4-89.1.4-46.1,38.7-83.2,85.5-82.9,46.5.3,82.7,37.9,82.4,85.6-.3,48.1-37.8,86.5-84.4,86.3h-.1Z"/>
  <g class="cls-1">
    <g class="cls-1">
      <path class="cls-3" d="M3148.1,229.3h75.3v57.4h1.2c37-47.5,90.1-67.3,145.6-67.3,109.8,0,183.9,79.6,183.9,180.2s-87,183.3-188.8,183.3-113.5-27.8-140.7-61.7v187h-76.5V229.3ZM3473.9,401.5c0-65.4-53.1-112.9-124-112.9s-126.5,46.3-126.5,112.9,56.1,112.3,126.5,112.3,124-47.5,124-112.3Z"/>
      <path class="cls-3" d="M3613.9,401.5c0-106.7,86.4-182,209.2-182s208.5,75.3,208.5,182-85.8,181.4-208.5,181.4-209.2-74.7-209.2-181.4ZM3951.4,401.5c0-66-52.4-112.9-128.3-112.9s-128.3,46.9-128.3,112.9,53.1,112.3,128.3,112.3,128.3-46.9,128.3-112.3Z"/>
      <path class="cls-3" d="M4066.2,229.3h87c34.6,83.3,67.9,164.7,102.4,248h2.5c35.2-82.1,71-166,106.1-248h71c35.8,83.3,71,164.7,106.7,248h1.9c33.9-83.3,67.9-164.7,101.8-248h86.4l-141.9,343.1h-90.1c-33.3-77.1-42.6-94.4-100-236.3h-1.2c-33.3,79.6-58,137-102.4,236.3h-87.6l-142.5-343.1Z"/>
      <path class="cls-3" d="M4765.9,402.1c0-105.5,85.1-182.6,203.6-182.6s193.1,50,193.1,179.5v21.6h-318.4c5.6,61.1,59.8,96.9,130.2,96.9s100-25.9,120.3-64.8l71.6,27.1c-29,59.8-100.6,103-191.9,103s-208.5-71.6-208.5-180.8ZM4968.9,282.4c-66,0-109.2,35.2-120.9,85.8h236.3c-4.9-62.9-61.7-85.8-115.4-85.8Z"/>
      <path class="cls-3" d="M5253.9,229.3h75.3v58h3.1c20.4-37.6,66.6-67.9,124-67.9s29,1.9,43.2,6.2v81.4c-15.4-4.9-37-6.8-50.6-6.8-92.6,0-118.5,75.9-118.5,129.6v142.5h-76.5V229.3Z"/>
    </g>
    <g class="cls-1">
      <path class="cls-2" d="M3148.1,229.3h75.3v57.4h1.2c37-47.5,90.1-67.3,145.6-67.3,109.8,0,183.9,79.6,183.9,180.2s-87,183.3-188.8,183.3-113.5-27.8-140.7-61.7v187h-76.5V229.3ZM3473.9,401.5c0-65.4-53.1-112.9-124-112.9s-126.5,46.3-126.5,112.9,56.1,112.3,126.5,112.3,124-47.5,124-112.3Z"/>
      <path class="cls-2" d="M3613.9,401.5c0-106.7,86.4-182,209.2-182s208.5,75.3,208.5,182-85.8,181.4-208.5,181.4-209.2-74.7-209.2-181.4ZM3951.4,401.5c0-66-52.4-112.9-128.3-112.9s-128.3,46.9-128.3,112.9,53.1,112.3,128.3,112.3,128.3-46.9,128.3-112.3Z"/>
      <path class="cls-2" d="M4066.2,229.3h87c34.6,83.3,67.9,164.7,102.4,248h2.5c35.2-82.1,71-166,106.1-248h71c35.8,83.3,71,164.7,106.7,248h1.9c33.9-83.3,67.9-164.7,101.8-248h86.4l-141.9,343.1h-90.1c-33.3-77.1-42.6-94.4-100-236.3h-1.2c-33.3,79.6-58,137-102.4,236.3h-87.6l-142.5-343.1Z"/>
      <path class="cls-2" d="M4765.9,402.1c0-105.5,85.1-182.6,203.6-182.6s193.1,50,193.1,179.5v21.6h-318.4c5.6,61.1,59.8,96.9,130.2,96.9s100-25.9,120.3-64.8l71.6,27.1c-29,59.8-100.6,103-191.9,103s-208.5-71.6-208.5-180.8ZM4968.9,282.4c-66,0-109.2,35.2-120.9,85.8h236.3c-4.9-62.9-61.7-85.8-115.4-85.8Z"/>
      <path class="cls-2" d="M5253.9,229.3h75.3v58h3.1c20.4-37.6,66.6-67.9,124-67.9s29,1.9,43.2,6.2v81.4c-15.4-4.9-37-6.8-50.6-6.8-92.6,0-118.5,75.9-118.5,129.6v142.5h-76.5V229.3Z"/>
    </g>
  </g>
  <g class="cls-1">
    <g class="cls-1">
      <path class="cls-3" d="M3153.1,1302.7c0-244.9,218.1-418.7,485.6-418.7s484.6,178,484.6,418.7-215,417.7-485.6,417.7-484.6-171.8-484.6-417.7ZM3978.2,1302.7c0-168.7-150.2-296.3-338.5-296.3s-342.6,124.5-342.6,296.3,156.4,295.3,342.6,295.3,338.5-124.5,338.5-295.3Z"/>
      <path class="cls-3" d="M4295,900.4h144c155.3,179,333.3,379.6,497.9,578.2h3.1v-578.2h135.8v802.5h-143c-165.6-189.3-332.3-372.4-499-568.9h-2.1v568.9h-136.8v-802.5Z"/>
      <path class="cls-3" d="M5271.4,1626.8c0-44.2,40.1-80.2,89.5-80.2s87.4,36,87.4,80.2-39.1,83.3-87.4,83.3-89.5-36-89.5-83.3ZM5288.9,980.7v-80.2h142v80.2l-34,487.6h-73l-35-487.6Z"/>
    </g>
    <g class="cls-1">
      <path class="cls-2" d="M3153.1,1302.7c0-244.9,218.1-418.7,485.6-418.7s484.6,178,484.6,418.7-215,417.7-485.6,417.7-484.6-171.8-484.6-417.7ZM3978.2,1302.7c0-168.7-150.2-296.3-338.5-296.3s-342.6,124.5-342.6,296.3,156.4,295.3,342.6,295.3,338.5-124.5,338.5-295.3Z"/>
      <path class="cls-2" d="M4295,900.4h144c155.3,179,333.3,379.6,497.9,578.2h3.1v-578.2h135.8v802.5h-143c-165.6-189.3-332.3-372.4-499-568.9h-2.1v568.9h-136.8v-802.5Z"/>
      <path class="cls-2" d="M5271.4,1626.8c0-44.2,40.1-80.2,89.5-80.2s87.4,36,87.4,80.2-39.1,83.3-87.4,83.3-89.5-36-89.5-83.3ZM5288.9,980.7v-80.2h142v80.2l-34,487.6h-73l-35-487.6Z"/>
    </g>
  </g>
</svg>