<?xml version="1.0" encoding="UTF-8"?>
<svg id="Layer_1" data-name="Layer 1" xmlns="http://www.w3.org/2000/svg" version="1.1" viewBox="0 0 5664 2000">
  <defs>
    <style>
      .cls-1 {
        font-size: 617px;
      }

      .cls-1, .cls-2 {
        font-family: AreaExtended-Black, 'Area Extended';
        font-weight: 800;
        stroke: #5a5099;
        stroke-miterlimit: 10;
        stroke-width: 30px;
      }

      .cls-1, .cls-2, .cls-3 {
        fill: #5a5099;
      }

      .cls-2 {
        font-size: 1028.8px;
      }

      .cls-3 {
        stroke-width: 0px;
      }
    </style>
  </defs>
  <path class="cls-3" d="M2795.9,1466.7c1.3-85.7-11.3-180.1-26.3-274.1-19.2-119.9-45.9-238.3-76.9-355.6-40.7-154.1-85.5-306.8-157.2-450.3-36.3-72.8-82.1-137.5-146.8-188.1-86.3-67.6-185.5-87-291.7-78.7-55.5,4.4-108.1,19.2-152.9,55.1-32.7,26.3-70.6,41.3-112.4,42.2-248.7,5.3-497.5,1.5-746.3,2.3-46.6.1-89-11.5-125.7-39.8-60.7-46.9-130.6-60.4-204.9-61.4-141.8-1.8-253.9,55.7-337.6,168.8-55.4,74.9-92.3,159.7-124.4,246.3-67.7,182.8-115.2,371.2-152.1,562.4-29.7,153.8-53.2,308.2-40.4,465.8,5.3,65.5,18.7,128.9,49.6,187.6,55.1,104.7,173.6,156.2,282.6,122.3,76.6-23.8,135.4-73.7,187.2-132.8,80.8-92.2,154.9-189.8,231.7-285.2,44.6-55.4,101-90.9,174.6-91,276.7-.3,553.5,0,830.2-.2,74.7,0,134.3,31.5,180.8,87.8,57.2,69.3,111.9,140.6,169,209.9,46.7,56.7,92,115.1,152.4,158.7,46.9,33.9,97.5,60.8,156.5,62.4,109.5,3,186.9-49.9,234.1-146.4,39.8-81.2,48.1-169.1,46.9-268.1ZM810.6,744.7c-17.4-.6-25,3.9-23.5,22.6,1.5,18.9.3,38.1.3,57.2,0,18.4.2,36.8,0,55.2-.4,23.2-10.3,32.7-34,32.9-25.2.1-50.4.2-75.6,0-21.5-.2-29.8-7.5-30.3-29.1-.8-38.8-1-77.6-.3-116.4.3-16.7-4.9-22.8-22.2-22.3-38.1,1.1-76.3.5-114.4.3-21.4-.1-29.7-8.1-30.1-29.3-.4-25.2-.3-50.4,0-75.6.3-25.6,8.9-34.3,34.1-34.4,37.5-.2,74.9-.6,112.4.2,15,.3,20.5-4,20.1-19.6-.9-38.1-.4-76.3,0-114.4.2-26.3,8.1-33.8,34.3-33.9,24.5,0,49-.2,73.5,0,22.5.2,32.3,9.8,32.5,32.2.3,37.5.9,74.9-.2,112.3-.5,17.5,4,24.2,22.6,23.5,35.4-1.4,70.8-.6,106.2-.4,24.3.2,34.8,10.6,35,34.6.2,23.2.2,46.3,0,69.5-.2,25.3-10.4,35.2-36.2,35.3-34.7.2-69.5.9-104.2-.2ZM1064.1,1249c-81.1-.1-145.5-64.2-145.6-144.9,0-77.2,69.1-150,141.6-149.1,82.7,1,148.8,67.7,148.6,150-.2,78.7-65.9,144.1-144.6,143.9ZM1830.1,1249.2c-81.1-.1-147.6-66.1-147-145.6.6-77.9,67.2-147.3,141.9-147.9,82.1-.7,148.9,67.6,148.4,151.5-.5,77.6-65.7,142.2-143.3,142.1ZM1981.1,745c-47.9,0-85.5-38.7-85.5-87.9,0-45.5,38.8-84.1,84.7-84.2,47.7-.2,84,35.6,84.6,83.2.6,50-36.1,88.9-83.8,88.9ZM2179.4,941.3c-48.3,0-84.6-37.7-84.7-87.9-.1-44.9,37.9-83.2,83-83.6,47.6-.5,86.4,39,86.1,87.5-.3,46.1-38.4,84-84.4,84ZM2178.9,548.2c-47.4-.7-83.6-39.6-83.6-89.7,0-46.3,37.2-83.1,84.7-83.8,46.9-.7,84.8,37.7,84.6,85.6-.2,48.4-39.3,88.5-85.7,87.8ZM2379.8,744.9c-48-.2-83.9-38.4-83.4-89.1.4-46.1,38.7-83.2,85.5-82.9,46.5.3,82.7,37.9,82.4,85.6-.3,48.1-37.8,86.5-84.4,86.3Z"/>
  <text class="cls-1" transform="translate(3089.5 572.4)"><tspan x="0" y="0">power</tspan></text>
  <text class="cls-2" transform="translate(3096.5 1702.9)"><tspan x="0" y="0">ON!</tspan></text>
</svg>