<?xml version="1.0" encoding="UTF-8"?>
<svg id="Layer_1" data-name="Layer 1" xmlns="http://www.w3.org/2000/svg" version="1.1" viewBox="0 0 2100 2100">
  <defs>
    <style>
      .cls-1 {
        fill: #3d1912;
      }

      .cls-1, .cls-2, .cls-3, .cls-4, .cls-5, .cls-6, .cls-7, .cls-8, .cls-9, .cls-10, .cls-11, .cls-12, .cls-13, .cls-14 {
        stroke-width: 0px;
      }

      .cls-2 {
        fill: #381712;
      }

      .cls-3 {
        fill: none;
      }

      .cls-4 {
        fill: #553529;
      }

      .cls-5 {
        fill: #351612;
      }

      .cls-6 {
        fill: #67422e;
      }

      .cls-7 {
        fill: #996a45;
      }

      .cls-8 {
        fill: #7a503c;
      }

      .cls-9 {
        fill: #a17047;
      }

      .cls-10 {
        fill: #8d5f42;
      }

      .cls-11 {
        fill: #845840;
      }

      .cls-12 {
        fill: #4a2b22;
      }

      .cls-13 {
        fill: #442019;
      }

      .cls-14 {
        fill: #eccc78;
      }
    </style>
  </defs>
  <g>
    <path class="cls-2" d="M1196.79,1783.98c-.66,0-1.1.22-1.54.66-95,76.79-199,118.92-308.71,125.06-110.36-6.14-214.36-48.27-309.58-125.5-.44-.44-.88-.44-1.54-.44-.44,0-.88,0-1.32.22-.88.66-1.32,1.76-.88,2.85,26.99,88.2,151.39,179.69,312.87,179.69s285.67-91.27,312.87-179.47c.44-.88,0-1.97-.88-2.63-.44-.22-.88-.44-1.32-.44h0Z"/>
    <path class="cls-9" d="M575.43,1786.17c28.08,91.49,156.44,177.94,310.68,177.94s282.38-86.23,310.68-177.72c-85.79,69.33-189.13,118.92-310.46,125.72-121.55-6.8-225.11-56.39-310.9-125.94h0Z"/>
    <path class="cls-10" d="M912.22,1963.23c142.18-9,257.8-90.61,284.57-176.84-68.89,55.73-149.42,98.73-241.35,116.94,29.62,23.04,1.1,43.66-43.22,59.9h0Z"/>
    <path class="cls-6" d="M575.43,1786.17c1.1,3.07,2.19,6.14,3.29,9.22,117.82,122.87,277.55,139.98,333.06,136.03,61-4.17,139.1-18.43,211.51-72.4,0,0,7.02,19.09-46.73,57.48,61-33.57,105.1-80.96,120.24-130.11-85.79,69.33-189.13,118.92-310.46,125.72-121.55-6.8-225.11-56.39-310.9-125.94h0Z"/>
    <path class="cls-2" d="M1745.09,1073.54c-14.92-3.51-29.62-5.49-43.88-5.49-91.71,0-152.05,71.97-179.69,114.97-.22.22-.44.66-.44.88-7.68,49.15-19.75,99.39-35.76,149.64-.44,1.1,0,2.19.88,2.85.44.22.88.44,1.32.44.66,0,1.32-.22,1.76-.88,13.38-12.73,47.61-46.95,75.48-85.57,27.65-38.4,80.96-79.64,132.3-79.64,22.16,0,42.56,7.9,60.12,23.26,33.57,29.4,45.86,68.02,35.76,111.68-19.31,82.06-115.19,163.46-227.96,193.52-64.94,17.33-136.47,44.54-184.74,64.51-.44.22-.88.44-1.1.88-23.7,38.18-49.15,74.38-76.13,107.29-.66.88-.66,2.19.22,3.07.44.44,1.1.66,1.76.66.44,0,.88,0,1.32-.22,49.59-32.69,101.37-47.61,166.97-66.48,62.31-17.77,139.76-40.15,238.06-85.35,148.54-68.45,192.2-187.15,183.42-275.36-8.56-87.76-66.04-154.68-149.64-174.65h0Z"/>
    <path class="cls-9" d="M1744.43,1075.73c-115.19-27.43-189.35,59.9-220.94,108.61-6.14,39.27-16.89,90.83-35.98,150.07,23.26-22.38,52.44-53.97,75.26-85.57,36.86-50.9,127.69-116.29,195.93-56.61,105.75,92.37-11.41,261.09-193.08,309.14-64.29,17.11-134.5,43.88-184.52,64.51-22.16,36.2-47.61,72.62-76.13,107.29,98.73-64.73,206.46-60.12,405.46-151.83,252.54-116.29,224.23-400.2,34.01-445.62h0Z"/>
    <path class="cls-10" d="M1689.36,1112.81c-44.98,0-48.49-16.46-39.05-34.45-62.31,19.75-104.88,72.18-126.82,105.97-6.14,39.27-16.89,90.83-35.98,150.07,23.26-22.38,52.44-53.97,75.26-85.57,36.86-50.9,127.69-116.29,195.93-56.61,105.75,92.37-11.41,261.09-193.08,309.14-64.29,17.11-134.5,43.88-184.52,64.51-22.16,36.2-47.61,72.62-76.13,107.29,69.99-45.86,144.59-57.05,252.98-92.15,20.62-72.84,199.44-54.85,272.06-214.36,77.89-171.58-41.25-253.85-140.64-253.85h0Z"/>
    <path class="cls-6" d="M1411.37,1612.18c-48.93,13.82-31.38-22.82-8.56-55.07-7.46,3.07-14.92,5.92-21.72,8.78-22.16,36.2-47.61,72.62-76.13,107.29,98.73-64.73,206.46-60.12,405.46-151.83,64.94-30.06,111.24-71.09,141.08-116.29-123.53,145.47-369.26,187.15-440.13,207.12h0Z"/>
    <path class="cls-6" d="M1578.78,1189.39c-50.68,40.15-26.11-15.14,8.56-76.79-28.96,23.04-50.46,50.9-63.85,71.75-6.14,39.27-16.89,90.83-35.98,150.07,23.26-22.38,52.44-53.97,75.26-85.57,36.86-50.9,127.69-116.29,195.93-56.61,87.54,76.57,22.16,205.15-105.75,274.48,107.51-35.98,188.03-163.02,152.93-243.32-39.93-90.83-130.55-110.58-227.09-34.01h0Z"/>
    <path class="cls-2" d="M1536.21,1101.84c-1.32,0-2.41,1.1-2.41,2.41,0,0,0,3.73-.44,10.97-12.94,159.51-297.3,284.57-647.69,284.57s-633.43-125.06-646.37-284.57c-.44-7.24-.44-10.97-.44-10.97,0-1.32-1.1-2.41-2.41-2.41h0c-1.32,0-2.41,1.1-2.41,2.41,0,3.73.22,7.46.44,11.41,2.85,48.05,19.97,219.85,127.69,412.49,76.79,137.79,247.05,371.02,523.94,386.38h.44c276.89-15.36,447.15-248.59,523.94-386.38,107.73-192.86,124.84-364.65,127.69-412.7.22-3.73.44-7.46.44-11.19,0-1.32-1.1-2.41-2.41-2.41h0Z"/>
    <path class="cls-9" d="M885.67,1402.21c-358.51,0-649.23-133.4-649.23-297.95,0,0,1.97,197.47,127.69,422.8,98.51,176.4,272.72,371.24,522.19,385.06,249.47-13.82,423.67-208.66,522.19-385.06,125.72-225.33,127.69-422.8,127.69-422.8,0,164.56-292.03,297.95-650.54,297.95h0Z"/>
    <path class="cls-7" d="M533.52,1354.38c-116.72-34.67-207.78-86.01-256.71-146.56,23.04,132.74,73.06,287.86,175.31,435.52,0,0-157.53-266.36,81.4-288.96h0Z"/>
    <path class="cls-7" d="M911.34,1401.77c65.82,77.45,78.33,169.82-6.58,278.43-71.31,91.27-186.93,124.4-327.57,107.29,85.57,68.89,188.47,117.82,309.14,124.62,249.47-13.82,423.67-208.66,522.19-385.06,125.72-225.33,127.69-422.8,127.69-422.8,0,160.61-278.21,291.37-624.87,297.52h0Z"/>
    <path class="cls-11" d="M1328.65,1322.13c-12.51,194.39-70.65,395.37-236.52,498.71-175.53,109.05-367.95,53.54-538.21-52.88,89.74,78.99,200.54,136.91,332.4,144.15,249.47-13.82,423.67-208.66,522.19-385.06,109.48-196.37,125.06-371.46,127.26-413.36-5.7,82.28-84.25,156-207.12,208.44h0Z"/>
    <path class="cls-11" d="M1535.99,1108.64c.22-2.85.22-4.39.22-4.39,0,1.32,0,2.85-.22,4.39h0Z"/>
    <path class="cls-11" d="M1535.77,1113.69c.22-1.76.22-3.29.22-5.05,0,1.32,0,3.07-.22,5.05h0Z"/>
    <path class="cls-10" d="M1045.18,1827.2c167.85-102.9,215.68-314.85,224.89-482.7-21.28,7.02-43.66,13.6-66.7,19.53,10.75,332.62-158.19,463.17-158.19,463.17h0Z"/>
    <path class="cls-6" d="M1441.65,1258.72c-39.05,263.29-146.78,421.48-146.78,421.48,124.62-139.98,177.5-337.89,199.66-471.29-14.26,17.55-32.03,34.23-52.88,49.81h0Z"/>
    <path class="cls-2" d="M885.67,803.89c-359.39,0-651.64,134.72-651.64,300.37s292.25,300.37,651.64,300.37,652.95-134.72,652.95-300.37-292.91-300.37-652.95-300.37h0Z"/>
    <path class="cls-14" d="M885.67,806.3c-358.51,0-649.23,133.4-649.23,297.95s290.71,297.95,649.23,297.95,650.54-133.4,650.54-297.95-292.03-297.95-650.54-297.95h0Z"/>
    <path class="cls-2" d="M886.11,830.44c-339.64,0-616.09,122.65-616.09,273.38s276.45,273.38,616.09,273.38,616.09-122.65,616.09-273.38-276.23-273.38-616.09-273.38h0Z"/>
    <path class="cls-13" d="M847.27,956.6c-293.35,0-533.6,95.88-554,217.43,70.21,115.63,308.92,200.76,592.84,200.76,196.37,0,371.02-40.81,483.35-104,21.5-25.01,33.35-52,33.35-80.08,0-129.23-248.81-234.11-555.54-234.11h0Z"/>
    <path class="cls-1" d="M743.05,965.15c-195.27,0-366.63,39.49-464.05,98.95-4.17,12.94-6.58,26.33-6.58,39.71,0,149.64,274.7,270.97,613.68,270.97,26.99,0,53.54-.88,79.64-2.19,192.2-33.13,326.48-107.73,326.48-194.61,0-117.6-245.96-212.82-549.18-212.82h0Z"/>
    <path class="cls-6" d="M791.98,1029c-222.26,0-402.17,65.82-402.17,146.78s179.91,147,402.17,147,402.17-65.82,402.17-147-180.13-146.78-402.17-146.78h0Z"/>
    <path class="cls-5" d="M801.2,1036.02c-208.44,0-377.38,61-377.38,136.25s168.94,136.25,377.38,136.25,377.38-61,377.38-136.25-168.94-136.25-377.38-136.25h0Z"/>
    <path class="cls-13" d="M870.75,1047.43c-162.14,0-293.79,51.56-293.79,114.97s131.64,114.97,293.79,114.97,293.79-51.56,293.79-114.97-131.64-114.97-293.79-114.97h0Z"/>
    <path class="cls-1" d="M898.39,1088.68c-97.64,0-176.62,26.55-176.62,59.46s78.99,59.68,176.62,59.68,176.62-26.77,176.62-59.68-78.99-59.46-176.62-59.46h0Z"/>
    <path class="cls-4" d="M272.43,1103.82c0,46.51,26.55,90.18,73.28,128.57-10.31-17.55-15.8-35.76-15.8-54.41,0-124.62,239.81-225.99,539.08-229.72,41.69-57.7,169.38-78.99,300.15-84.91-84.69-19.53-180.79-30.5-283.03-30.5-338.98,0-613.68,121.33-613.68,270.97h0Z"/>
    <path class="cls-12" d="M272.43,1103.82c0,46.51,26.55,90.18,73.28,128.57-10.31-17.55-15.8-35.76-15.8-54.41,0-29.18,13.38-57.27,37.52-82.94-59.24-48.71-8.34-115.41,67.36-174.65-100.71,48.27-162.36,112.56-162.36,183.42h0Z"/>
    <path class="cls-8" d="M1342.04,922.59c93.91,93.69,89.3,136.25,38.83,150.29,39.27,31.59,61.43,67.14,61.43,105.1,0,18.65-5.49,36.86-15.8,54.19,46.73-38.18,73.28-81.84,73.28-128.35,0-69.77-59.68-133.4-157.75-181.23h0Z"/>
    <path class="cls-6" d="M985.28,276.87c-16.67-2.19-33.35-3.29-49.81-3.29-67.36,0-120.02,18.65-152.27,34.23-28.96,14.92-44.32,26.77-51.12,31.81-1.1.88-1.97,1.54-2.41,1.76-.44.22-.88.44-1.1.66-.88.88-1.1,2.19-.22,3.07.44.66,1.1,1.1,1.97,1.1s1.76-.22,5.92-1.97c8.34-3.51,27.86-11.41,57.92-19.53,20.4-5.27,52.66-11.63,89.96-11.63,28.96,0,56.83,3.95,82.72,11.41,58.8,15.58,125.06,61.43,131.42,125.06,7.9,56.61-42.13,117.82-133.84,163.68-17.99,8.56-39.05,17.55-61.43,26.99-79.21,33.13-177.72,74.6-221.82,139.54-63.41,80.96-26.33,168.29,29.62,223.36,56.39,54.19,121.11,96.32,192.42,125.28,2.85,1.1,5.49,2.19,6.58,2.85.44.44,1.1.88,1.97.88h.22c.88-.22,1.76-.88,2.19-1.76.44-1.97.22-2.19-7.24-7.9-20.84-15.58-84.03-63.41-136.47-143.71-21.72-35.76-49.59-103.78,7.46-157.97,20.84-22.38,55.29-44.1,105.32-66.26,16.24-7.46,35.98-14.7,56.83-22.38,31.59-11.63,67.58-24.79,102.02-42.78,107.07-51.12,198.78-154.24,167.41-251.88-26.77-95.44-134.94-150.07-224.23-160.61h0Z"/>
    <path class="cls-14" d="M985.06,279.29c-93.47-12.29-163.24,12.51-200.76,30.72-38.4,19.75-53.32,34.45-53.97,33.79.44.66,21.72-10.09,63.19-21.5,41.25-10.53,107.29-19.53,173.77-.22,66.04,17.55,127.48,67.36,133.4,127.04,8.12,59.9-45.64,121.33-135.15,166.31-82.06,39.27-226.43,83.16-282.38,165.87-66.48,84.91-18.21,173.33,29.18,220.07,102.9,98.73,201.85,126.82,199.44,128.35,2.85-.22-78.77-50.9-143.27-149.64-29.84-48.93-43.88-112.12,7.68-161.04,23.48-25.01,61.87-46.95,106.19-66.7,41.03-18.87,101.37-35.11,158.85-65.16,112.78-53.97,195.93-155.78,166.09-249.03-25.89-91.71-131.86-148.32-222.26-158.85h0Z"/>
    <path class="cls-6" d="M1082.92,189.55c-32.91-7.46-67.14-11.19-101.15-11.19-98.73,0-181.45,30.72-233.67,56.61-140.42,73.06-206.46,161.92-228.18,191.1-3.07,3.95-5.7,7.68-7.02,8.78-.22,0-.66.22-.88.44-1.1.44-1.54,1.97-1.1,3.07.44.88,1.54,1.54,2.41,1.54,1.97,0,3.29-1.54,10.97-10.75,22.82-27.86,92.37-112.78,230.82-179.47,48.71-22.38,125.94-49.15,216.99-49.15,35.76,0,71.09,4.39,105.32,12.51,124.18,23.92,243.76,138.01,220.07,280.62-7.24,61.87-49.37,118.7-115.41,156-53.1,31.16-110.36,50.9-165.87,69.99l-29.18,10.31c-55.73,19.31-108.61,37.74-153.37,67.8-51.78,30.5-78.99,95.22-60.56,144.37,28.74,82.06,86.67,125.5,128.79,157.1,7.24,5.27,14.04,10.31,19.97,15.14,24.57,17.33,47.83,31.81,69.11,43.22.88.44,1.54.88,1.76,1.1.44.22.88.44,1.32.44h.44c1.32-.22,2.19-1.54,1.97-2.85-.22-1.1-.44-1.32-3.29-3.07-20.4-12.29-42.78-27.65-66.04-45.42-5.49-4.61-11.41-9.43-17.55-14.48-40.81-33.13-96.76-78.33-120.89-155.56-14.04-44.32,9.43-95.88,56.17-122.65,42.56-27.43,95-44.54,150.29-62.75l28.52-9.22c56.61-18.65,115.19-37.74,172.02-70.21,73.06-39.71,121.33-105.32,129.23-175.53,11.41-74.6-13.16-154.68-64.07-208.88-56.61-61.87-128.13-87.98-177.94-98.95h0Z"/>
    <path class="cls-14" d="M1082.26,191.74c-127.91-28.52-247.05,2.85-333.06,45.42-174.21,90.62-233.23,205.15-236.08,200.1,2.41,5.05,67.58-106.19,241.13-189.79,85.35-39.27,201.85-66.26,323.63-36.86,119.14,23.04,246.39,136.47,221.82,283.25-8.12,70.43-58.36,125.06-116.29,157.97-58.36,34.01-121.77,54.63-181.67,75.48-59.9,20.84-118.26,39.93-166.97,72.62-50.68,29.84-77.45,93.03-59.46,141.3,33.57,95.66,107.51,138.88,148.1,171.14,44.1,30.94,70.87,44.1,70.65,44.32.22-.22-25.89-14.7-68.67-47.17-38.84-33.35-110.8-80.96-138.88-171.14-14.48-44.98,9.22-98.07,57.05-125.5,46.29-29.62,104.22-47.39,164.34-67.14,60.12-19.97,124.84-39.71,186.5-75.04,61.21-33.13,119.36-95.22,128.13-173.55,11.63-76.13-14.04-154.46-63.41-206.9-48.71-53.32-113.65-84.47-176.84-98.51h0Z"/>
  </g>
  <rect class="cls-3" width="2100" height="2100"/>
</svg>