<?xml version="1.0" encoding="UTF-8"?>
<svg xmlns="http://www.w3.org/2000/svg" version="1.1" viewBox="0 0 2899 954">
  <defs>
    <style>
      .cls-1, .cls-2, .cls-3, .cls-4, .cls-5, .cls-6, .cls-7, .cls-8, .cls-9, .cls-10 {
        font-family: FinkHeavy, FinkHeavy;
      }

      .cls-1, .cls-4, .cls-5, .cls-9, .cls-10 {
        font-size: 285.44px;
      }

      .cls-1, .cls-5, .cls-6, .cls-7, .cls-11 {
        fill: #fff;
      }

      .cls-2, .cls-3, .cls-4, .cls-8, .cls-9, .cls-10 {
        fill: none;
      }

      .cls-2, .cls-3, .cls-6, .cls-7, .cls-8 {
        font-size: 537.87px;
      }

      .cls-2, .cls-4 {
        stroke: #5b4a43;
      }

      .cls-2, .cls-8 {
        stroke-width: 31.78px;
      }

      .cls-3 {
        stroke-width: 4.24px;
      }

      .cls-3, .cls-5, .cls-7, .cls-9 {
        stroke: #fff;
      }

      .cls-12 {
        fill: #f1f2f2;
      }

      .cls-12, .cls-13, .cls-14, .cls-15, .cls-16, .cls-11 {
        stroke-width: 0px;
      }

      .cls-17 {
        isolation: isolate;
      }

      .cls-13, .cls-15 {
        fill: #e6e7e8;
      }

      .cls-4, .cls-10 {
        stroke-width: 16.87px;
      }

      .cls-5 {
        stroke-width: 3.85px;
      }

      .cls-5, .cls-7 {
        stroke-miterlimit: 10;
      }

      .cls-7 {
        stroke-width: 7.26px;
      }

      .cls-8, .cls-10 {
        stroke: #5b4a43;
      }

      .cls-14 {
        fill: #ad9793;
      }

      .cls-15 {
        mix-blend-mode: multiply;
      }

      .cls-16 {
        fill: #231f20;
      }

      .cls-9 {
        stroke-width: 2.25px;
      }
    </style>
  </defs>
  <g class="cls-17">
    <g id="Layer_1" data-name="Layer 1">
      <g>
        <path class="cls-13" d="M858.91,851.12c-.39.21-.77.44-1.16.65-1.14.87-.7,8.45-4.21,13.65-9.05,18.78-92.32,33.6-194.96,34.26-4.39.08-6.83.08-6.83.08,0,0-2.3,0-6.43-.08-107.93-.59-194.69-16.83-196.78-36.92-1.99-4.81-1.84-10.26-2.8-10.99-.39-.21-.77-.44-1.16-.65,42.63,12.95,119.46,21.59,207.16,21.59s164.53-8.64,207.16-21.59Z"/>
        <path class="cls-16" d="M175.63,168.95h952.23s6.81,483.39-233.52,659.52c-11.26,8.25-23.06,15.82-35.43,22.65-42.63,12.95-119.46,21.59-207.16,21.59s-164.53-8.64-207.16-21.59c-12.37-6.82-24.18-14.39-35.43-22.65C168.82,652.34,175.63,168.95,175.63,168.95Z"/>
        <ellipse class="cls-13" cx="651.81" cy="168.95" rx="453.79" ry="84.02"/>
        <path class="cls-14" d="M665.17,147.26c-169.04,0-316.47,17.11-394.55,42.49,80.55,23.41,221.97,38.94,382.98,38.94,169.04,0,316.47-17.11,394.55-42.49-80.55-23.41-221.97-38.94-382.98-38.94Z"/>
        <path class="cls-11" d="M175.63,169.34c.3,31.49,36.98,47.55,49.07,52.84,24.43,10.69,58.8,20.18,102.16,28.21,87.01,16.11,202.42,24.98,324.95,24.98s237.94-8.87,324.95-24.98c43.36-8.03,77.73-17.52,102.16-28.21,11.74-5.14,46.69-20.44,48.96-50.17.08,41.25-4.39,488.52-233.53,656.46-11.26,8.25-23.06,15.82-35.43,22.65-42.63,12.95-119.46,21.59-207.16,21.59s-164.53-8.64-207.16-21.59c-12.37-6.82-24.18-14.39-35.43-22.65C172.73,655.21,175.48,184.6,175.63,169.34Z"/>
        <path class="cls-15" d="M1127.88,171.54c-2.27,29.73-37.22,45.03-48.96,50.17-4.34,1.9-9.01,3.76-13.97,5.58-2.14,95.62-23.29,468.28-221.04,627.39,5.37-1.29,10.39-2.64,14.99-4.03,12.37-6.82,24.18-14.39,35.43-22.65,229.15-167.94,233.61-615.21,233.53-656.46Z"/>
        <path class="cls-12" d="M1279.18,375.54c-16.92-46.05-48.35-77.38-88.51-88.22-14.96-4.04-29.49-6.08-43.19-6.08-8.68,0-17.05.8-25.13,2.35-1.49,16.63-3.37,34.6-5.76,53.57,13.28-6.01,24.47-6.01,30.89-6.01,9.31,0,19.46,1.47,30.18,4.36,24.08,6.5,43.49,26.83,54.67,57.24,12.28,33.43,13.03,74.13,2.11,114.59-18.8,69.65-69.75,122.18-118.52,122.17-5.77,0-11.49-.75-17-2.24-19.7-5.32-34.81-13.56-45.79-24.98-6.32,16.29-13.17,32.38-20.6,48.13,14.82,11.04,32.63,19.43,53.38,25.03,9.74,2.63,19.84,3.96,30,3.96h0c35.62,0,72.09-16.45,102.69-46.31,29.39-28.68,52.13-68.73,64.01-112.76,13.59-50.34,12.36-101.77-3.44-144.8Z"/>
        <path class="cls-11" d="M175.61,168.95c0,.13.01.26.01.39.3,31.49,36.98,47.55,49.07,52.84,24.43,10.69,58.8,20.18,102.16,28.21,87.01,16.11,202.42,24.98,324.95,24.98s237.94-8.87,324.95-24.98c43.36-8.03,77.73-17.52,102.16-28.21,11.74-5.14,46.69-20.44,48.96-50.17.08-1,.12-2.02.12-3.06,0-31.74-36.94-47.91-49.08-53.23-24.43-10.69-58.8-20.18-102.16-28.21-87.01-16.11-202.42-24.98-324.95-24.98s-237.94,8.87-324.95,24.98c-43.36,8.03-77.73,17.52-102.16,28.21-12.14,5.31-49.08,21.48-49.08,53.23ZM221.77,168.95h0c8-7.82,40.8-25.28,128.2-40.02,82.51-13.92,189.71-21.59,301.83-21.59s219.32,7.67,301.83,21.59c87.4,14.75,120.2,32.2,128.2,40.02h0c-8,7.82-40.8,25.28-128.2,40.02-82.51,13.92-189.71,21.59-301.83,21.59s-219.32-7.67-301.83-21.59c-87.4-14.75-120.2-32.2-128.2-40.02Z"/>
        <path class="cls-12" d="M210.14,215.14s11.12,464.27,246.21,617.62c0,0,17.94,6.16,48.35,8.71-106.8-111.13-164-291.32-180.63-591.58,0,0-66.04-10.08-113.93-34.75Z"/>
        <path class="cls-12" d="M357,255.37c17.97,210.34,43.92,434.64,169.88,587.91l19.58,1.64c-41.76-57.48-143.54-221.67-150.71-584.24l-38.74-5.31Z"/>
      </g>
      <g>
        <g>
          <text class="cls-5" transform="translate(1354.08 321.29)"><tspan x="0" y="0">BREWSTER’S </tspan></text>
          <g>
            <text class="cls-10" transform="translate(1365.33 332.54)"><tspan x="0" y="0">BREWSTER’S </tspan></text>
            <text class="cls-4" transform="translate(1354.08 321.29)"><tspan x="0" y="0">BREWSTER’S </tspan></text>
          </g>
          <text class="cls-9" transform="translate(1354.08 321.29)"><tspan x="0" y="0">BREWSTER’S </tspan></text>
          <text class="cls-1" transform="translate(1354.08 321.29)"><tspan x="0" y="0">BREWSTER’S </tspan></text>
        </g>
        <g>
          <text class="cls-7" transform="translate(1349.4 829.05)"><tspan x="0" y="0">BEANS</tspan></text>
          <g>
            <text class="cls-8" transform="translate(1370.59 850.24)"><tspan x="0" y="0">BEANS</tspan></text>
            <text class="cls-2" transform="translate(1349.4 829.05)"><tspan x="0" y="0">BEANS</tspan></text>
          </g>
          <text class="cls-3" transform="translate(1349.4 829.05)"><tspan x="0" y="0">BEANS</tspan></text>
          <text class="cls-6" transform="translate(1349.4 829.05)"><tspan x="0" y="0">BEANS</tspan></text>
        </g>
      </g>
    </g>
  </g>
</svg>