<?xml version="1.0" encoding="UTF-8"?>
<svg id="_Ñëîé_1" data-name="Ñëîé 1" xmlns="http://www.w3.org/2000/svg" viewBox="0 0 3374.93 3815.98">
  <defs>
    <style>
      .cls-1 {
        fill: #d3d3d3;
      }

      .cls-1, .cls-2, .cls-3, .cls-4, .cls-5, .cls-6, .cls-7, .cls-8, .cls-9, .cls-10, .cls-11, .cls-12, .cls-13, .cls-14, .cls-15, .cls-16, .cls-17 {
        stroke-width: 0px;
      }

      .cls-2 {
        fill: #d1b18b;
      }

      .cls-3, .cls-9 {
        fill: #553529;
      }

      .cls-3, .cls-16 {
        opacity: .5;
      }

      .cls-4 {
        fill: #6b4d14;
      }

      .cls-5 {
        fill: #351612;
      }

      .cls-6 {
        fill: #dbdbdb;
      }

      .cls-7 {
        fill: #9b8f8e;
      }

      .cls-8 {
        fill: #e6e6e6;
      }

      .cls-10 {
        fill: #f5f4f4;
      }

      .cls-11 {
        fill: #dadada;
      }

      .cls-12 {
        fill: #fff;
      }

      .cls-13 {
        fill: #e3e2e2;
      }

      .cls-14 {
        fill: #f8f8f8;
      }

      .cls-15 {
        fill: #d1d1d1;
      }

      .cls-16 {
        fill: #cbcaca;
      }

      .cls-17 {
        fill: #eeeded;
      }
    </style>
  </defs>
  <ellipse class="cls-7" cx="1777.67" cy="3208.97" rx="1597.27" ry="607"/>
  <path class="cls-11" d="M3246.83,3085.13c0,299.7-730.94,609.62-1623.42,609.62S0,3384.83,0,3085.13c0-120.83,70.84-214.85,207.46-296.67,280.82-168.19,815.56-260.86,1415.96-260.86s1118.01,78.89,1399.28,246.56c137.72,82.1,224.14,179.82,224.14,310.97Z"/>
  <path class="cls-14" d="M3246.83,3085.13c0,299.7-730.94,542.65-1623.42,542.65S0,3384.83,0,3085.13c0-120.83,70.84-214.85,207.46-296.67,280.82-168.19,815.56-260.86,1415.96-260.86s1118.01,78.89,1399.28,246.56c137.72,82.1,224.14,179.82,224.14,310.97Z"/>
  <ellipse class="cls-17" cx="1623.42" cy="3053.44" rx="1545.75" ry="488.75"/>
  <path class="cls-13" d="M3063.13,2063.28c-54.38-53.75-130.45-83.22-214.61-83.22-1.38,0-2.77,0-4.15.02-120.55,1.39-242.88,66.77-327.23,174.91l-38.14,48.9,41.18,32.12-88.13,144.03s177.35,0,214.56-120.3c37.2-120.29,116.57-130.22,121.16-141.2,25.94-9.13,52.31-14.14,78.03-14.43.86-.01,1.72-.02,2.57-.02,50.65,0,97.03,17.2,127.57,47.39,30.01,29.67,45.23,71.22,45.23,123.51,0,99.86-130.74,231.58-368.13,370.88-193.34,113.45-390.05,191.78-392.56,192.77l-57.67,22.8,45.6,115.34,57.67-22.8c8.35-3.3,206.73-82.17,408.51-200.42,120.36-70.54,216.84-140.59,286.73-208.21,95.47-92.36,143.88-183.32,143.88-270.35s-28.38-158.63-82.06-211.71Z"/>
  <g>
    <path class="cls-6" d="M2646.6,2259.73c12.24-39.57,29.04-67.14,46.24-86.79,11.69-62.81,18.61-118.79,22.42-167.39-74.64,28.62-144.16,80.27-198.12,149.45l-38.14,48.9,41.18,32.12-88.13,144.03s177.35,0,214.56-120.3Z"/>
    <path class="cls-6" d="M2306.08,2953.97c3.75-1.48,45.81-18.2,109.27-46.87,33.43-58.59,65.06-120.41,94.16-182.89-136.55,69.64-247.14,113.68-249.02,114.42l-57.67,22.8,45.6,115.34,57.67-22.8Z"/>
  </g>
  <g>
    <path class="cls-12" d="M2517.14,2182.17c84.35-108.14,206.68-173.52,327.23-174.91,1.38-.02,2.78-.02,4.15-.02,84.16,0,160.23,29.46,214.61,83.22,50.41,49.83,78.5,117.42,81.74,196.21.19-3.9.32-7.8.32-11.68,0-85.43-28.38-158.63-82.06-211.71-54.38-53.75-130.45-83.22-214.61-83.22-1.38,0-2.77,0-4.15.02-120.55,1.39-242.88,66.77-327.23,174.91l-38.14,48.9,13.18,10.28,24.96-32Z"/>
    <path class="cls-12" d="M2260.48,2865.81c2.51-.99,199.22-79.32,392.56-192.77,237.39-139.3,368.13-271.02,368.13-370.88,0-5.5-.21-10.85-.54-16.11-9.17,98.43-138.86,225.59-367.59,359.81-193.34,113.45-390.05,191.78-392.56,192.77l-57.67,22.8,9.29,23.5,48.38-19.12Z"/>
    <path class="cls-12" d="M2520.18,2263.18l-11.26-8.78-76.88,125.63s6.46,0,17.14-.84l70.99-116.01Z"/>
  </g>
  <path class="cls-12" d="M2520.18,2263.18l-11.26-8.78-76.88,125.63s6.46,0,17.14-.84l70.99-116.01Z"/>
  <ellipse class="cls-15" cx="1623.42" cy="3191.36" rx="540.46" ry="199.29"/>
  <path class="cls-16" d="M3245.04,3053.41c-858.52-19.84-2083.5,174.66-2083.5,174.66,0,0,292.18,345.98,1113.77,353.93,570.57-84.06,971.52-274.9,971.52-496.86,0-10.81-.64-21.37-1.8-31.73Z"/>
  <path class="cls-10" d="M2517.14,2182.17c53.36-68.41,121.93-119.68,195.63-148.5.95-9.63,1.77-19.01,2.49-28.13-74.64,28.62-144.16,80.27-198.12,149.45l-38.14,48.9,13.18,10.28,24.96-32Z"/>
  <path class="cls-10" d="M2260.48,2865.81c1.8-.71,103.43-41.18,232.07-105.84,5.74-11.88,11.39-23.81,16.95-35.76-136.55,69.64-247.14,113.68-249.02,114.42l-57.67,22.8,9.29,23.5,48.38-19.12Z"/>
  <path class="cls-13" d="M2629.13,1782.4H617.11s-44.46,221.34,68.01,596.17c90.04,300.07,295.53,723.3,498.59,866.21,12.11,9.96,28.07,19.39,47.4,28.13,7.05,3.38,14.09,6.38,21.11,8.98l.51-.03c85.21,32.45,219.54,53.4,370.69,53.4s289.65-21.59,374.63-54.91c.89-.35,1.79-.71,2.68-1.07,28.02-11.21,50.29-23.72,65.55-37.16,201.84-145.44,405.36-565.3,494.84-863.53,112.47-374.83,68.01-596.17,68.01-596.17Z"/>
  <path class="cls-1" d="M2629.13,1782.4h-181.17s44.46,221.34-68.01,596.17c-58.55,195.14-165.93,442.36-289.71,630.7-79.38,120.78-204.47,204.6-346.67,230.46-140.7,25.59-345.6,30.14-618.26-43.49,19.42,18.52,38.93,34.83,58.41,48.54,12.11,9.96,28.07,19.39,47.4,28.13,7.05,3.38,14.09,6.38,21.11,8.98l.5-.03c85.21,32.45,219.54,53.4,370.69,53.4s289.65-21.59,374.63-54.91c.89-.35,1.78-.71,2.68-1.07,28.02-11.21,50.29-23.72,65.55-37.16,201.84-145.44,405.36-565.3,494.84-863.53,112.47-374.83,68.01-596.17,68.01-596.17Z"/>
  <path class="cls-12" d="M1623.42,2068.74c-264.54,0-513.56-23.62-701.19-66.5-206.25-47.14-310.83-110.3-310.83-187.75s104.58-140.61,310.83-187.75c187.63-42.88,436.66-66.5,701.19-66.5s513.56,23.62,701.19,66.5c206.25,47.14,310.83,110.3,310.83,187.75s-104.58,140.61-310.83,187.75c-187.63,42.88-436.66,66.5-701.19,66.5Z"/>
  <ellipse class="cls-8" cx="1623.42" cy="1814.49" rx="982.26" ry="224.48"/>
  <path class="cls-9" d="M2511.11,1910.69c-157.64-75.84-495.85-128.28-887.69-128.28s-730.05,52.44-887.7,128.28c157.64,75.84,495.85,128.28,887.7,128.28s730.05-52.44,887.69-128.28Z"/>
  <path class="cls-3" d="M1632.91,1418.41s-4.48-2.21-12.32-7.37c-3.92-2.58-8.7-5.87-14.09-10.06-5.46-4.13-11.52-9.16-18.06-15.14-13.13-11.91-28.13-27.73-42.95-48.33-14.85-20.54-29.14-46.23-39.68-77.05-10.52-30.73-16.86-66.83-15.53-105.36,1.18-38.52,10.58-78.8,26.45-116.99,2.1-4.71,4.21-9.43,6.33-14.18l3.22-7.14,1.64-3.57,1.85-3.41c4.98-9.07,9.89-18.35,15.16-27.43,5.68-8.72,11.39-17.49,17.13-26.31,1.39-2.26,3.02-4.27,4.58-6.36l4.73-6.24c3.17-4.16,6.34-8.33,9.52-12.51l4.79-6.27c1.62-2.06,3.39-3.95,5.09-5.93,3.43-3.92,6.86-7.85,10.3-11.79,3.45-3.93,6.91-7.87,10.37-11.81,3.56-3.81,7.29-7.39,10.93-11.1l11.03-11.05c3.71-3.63,7.28-7.51,11.19-10.87l23.18-20.55,21.43-18.55,10.94-9.37,5.5-4.65c1.79-1.54,3.23-2.96,4.87-4.44,6.35-5.87,12.71-11.72,19.17-17.45,6.44-5.77,12.57-12.31,18.95-18.29,24.94-24.66,48.16-49.81,68.33-75.54,20.01-25.77,37.1-51.97,50.62-78.1,3.4-6.52,6.22-13.13,9.48-19.57,2.83-6.52,5.37-13.05,8.12-19.47,2.21-6.49,4.63-12.91,6.68-19.29.94-3.22,1.87-6.4,2.8-9.55.95-3.17,1.9-6.32,2.56-9.46,6.31-25.12,9.09-49.26,9.54-71.17.5-21.93-1.76-41.47-4.47-57.68-.68-4.06-1.39-7.91-2.23-11.49-.72-3.64-1.49-7.03-2.29-10.18-1.56-6.32-3.12-11.68-4.45-16.05-2.72-8.71-4.63-13.34-4.63-13.34,0,0,4.04,2.96,10.64,9.71,3.29,3.37,7.29,7.65,11.56,13.04,4.39,5.33,9.12,11.74,13.93,19.29,9.72,15.03,20.08,34.68,27.99,59.09,8.01,24.34,13.55,53.48,14.11,85.81.04,2.02.17,4.07.14,6.1-.07,2.03-.13,4.08-.2,6.13-.15,4.13-.3,8.3-.46,12.51-.09,4.24-.71,8.41-1.11,12.69-.46,4.28-.93,8.59-1.4,12.94-1.37,8.58-2.91,17.35-4.66,26.21-2.11,8.7-4.19,17.67-6.76,26.55-10.38,35.56-26.34,71.25-46.6,105.33-20.4,33.99-45,66.33-72.25,96.52-3.44,3.74-6.89,7.48-10.34,11.24-3.51,3.73-6.83,7.53-10.64,11.17-7.4,7.38-14.94,14.67-22.51,21.96-1.87,1.78-3.83,3.75-5.63,5.38l-5.36,4.8-10.8,9.54-22.05,19.39-20.17,17.52c-6.56,5.96-12.79,12.08-19.21,18.08-3.16,3.03-6.43,5.99-9.51,9.06l-8.96,9.33c-2.99,3.1-5.98,6.2-8.96,9.3-1.48,1.55-3.02,3.08-4.45,4.65l-4.14,4.79c-22.86,25.16-42.31,51.49-57.66,78.29-15.32,26.8-26.62,54.14-32.88,81.39-6.32,27.22-8.05,54.29-6.36,79.91,1.67,25.62,6.65,49.69,13,70.94,6.37,21.26,13.96,39.71,20.86,54.82,3.48,7.54,6.84,14.24,9.84,20.08,3.05,5.8,5.75,10.74,8.01,14.73,4.54,7.96,7.25,12.17,7.25,12.17Z"/>
  <path class="cls-3" d="M2225.3,850.44c-.37-20.03-3.54-39.32-9.41-57.3-4.57-14.1-10.9-27.45-18.79-39.66-5.29-8.22-11.1-15.58-17.27-21.89-4.48-4.56-7.29-6.68-7.6-6.91l-17.52-12.97,8.35,20.14s1.18,2.87,2.8,8.1c2.27,7.35,4.17,15.32,5.62,23.63,2.15,12.88,3.08,24.72,2.81,36.23-.27,15.06-2.29,30.1-5.99,44.74-4,16.26-10.29,32.66-18.68,48.73-8.57,16.47-19.41,33.17-32.19,49.61-11.95,15.24-26.25,31.05-43.61,48.23-1.8,1.69-3.57,3.44-5.33,5.19-2.34,2.32-4.55,4.51-6.81,6.53-4.21,3.74-8.36,7.55-12.41,11.3-4.46,3.96-9.41,8.2-14.35,12.43-4.56,3.91-9.13,7.82-13.32,11.52l-15.08,13.37c-3.37,3.09-6.61,6.36-9.74,9.53-1.6,1.61-3.19,3.23-4.87,4.88-.8.81-1.61,1.62-2.41,2.42-1.61,1.61-3.22,3.21-4.9,5.02l-6.72,7.65-7.83,8.96c-.79.9-1.58,1.8-2.39,2.82l-3.01,3.94c-17.9,22.28-32.17,46.12-42.4,70.83-10.78,25.99-16.84,52.92-17.55,77.97-.21,15.34.48,26.78,2.23,37.1l1.46,8.49c.36,2.06.85,4,1.32,5.88.22.88.44,1.75.67,2.75l.63,2.52c.46,1.88.92,3.75,1.48,5.72.66,2.12,1.37,4.22,2.07,6.28l.51,1.5c6.37,18.57,15.28,35.88,26.48,51.45,8.58,11.92,18.22,22.76,28.63,32.22,6.97,6.37,14.22,12.05,21.58,16.91,5.32,3.49,8.47,5.06,8.6,5.13l19.74,9.81-11.99-18.51s-1.72-2.67-4.51-7.57c-3.9-6.87-7.72-14.3-11.32-22.06-5.5-12.04-9.83-23.4-13.22-34.72-4.49-14.89-7.25-29.88-8.19-44.58-1.14-16.94.19-33.75,3.96-49.96,3.9-16.74,10.86-33.92,20.67-51.06,9.65-16.85,21.95-33.54,36.56-49.62l.2-.24c2.08-2.54,4.47-4.98,7-7.56,1.38-1.41,2.77-2.83,4.05-4.2l5.71-5.95c1.22-1.22,2.49-2.41,3.76-3.6.77-.72,1.54-1.44,2.25-2.12,1.61-1.51,3.21-3.03,4.81-4.55,2.49-2.38,4.99-4.76,7.46-7.01l13.12-11.4c3.46-3.1,6.79-6,10.07-8.86,6.22-5.42,12.09-10.54,18.49-16.61,4.92-4.74,9.83-9.49,14.65-14.3,3.71-3.72,7.18-7.51,10.53-11.17l3.26-3.55c18.62-20.63,34.59-41.97,47.48-63.45,13.73-23.13,24.08-46.55,30.76-69.62,1.18-4.1,2.17-8.22,3.13-12.19.42-1.75.84-3.48,1.34-5.48,1.39-6.96,2.34-12.27,3.1-17.24,0,0,.39-3.72.57-5.41.41-3.84.84-7.8,1.09-11.85l.32-8.02c.18-3.31.19-6.05.05-8.35Z"/>
  <path class="cls-3" d="M1547.54,0s.66.22,1.95.64c1.28.44,3.23,1.08,5.63,2.09,4.87,1.96,11.94,5.07,20.46,9.86,8.65,4.67,18.63,11.13,29.64,19.37,11.05,8.2,22.64,18.6,34.58,30.92,11.69,12.5,23.48,27.12,34.34,43.97,2.74,4.19,5.19,8.64,7.8,13.1,1.29,2.24,2.59,4.5,3.9,6.77,1.16,2.35,2.32,4.71,3.49,7.09,2.3,4.78,4.78,9.58,6.91,14.58,2.03,5.05,4.12,10.15,6.09,15.36,7.51,20.92,13.62,43.53,16.12,67.03.76,5.86,1.57,11.76,1.69,17.7.3,5.93.54,11.9.69,17.88.17,3-.03,5.97-.13,8.95l-.4,8.95-.49,8.96-.26,4.48-.55,4.43-2.46,17.69c-.48,2.93-.71,5.92-1.42,8.78l-1.96,8.62c-1.3,5.74-2.62,11.47-4.04,17.14-.61,2.87-1.66,5.58-2.49,8.35-.89,2.75-1.79,5.5-2.68,8.24-1.84,5.45-3.67,10.88-5.5,16.29-2.23,5.2-4.45,10.37-6.65,15.52-2.22,5.12-4.51,10.18-6.77,15.18-2.52,4.85-5.17,9.59-7.73,14.31-2.55,4.72-5.17,9.35-7.76,13.91-2.56,4.58-5.61,8.77-8.41,13.05-2.84,4.25-5.65,8.44-8.5,12.52-1.41,2.04-2.82,4.07-4.21,6.09-1.36,2.04-3.01,3.85-4.48,5.75-6.03,7.54-11.99,14.75-17.8,21.63-2.85,3.49-5.93,6.67-8.98,9.76-3.05,3.1-5.98,6.16-8.95,9.08-2.96,2.93-5.81,5.81-8.67,8.56-2.87,2.74-5.53,5.52-8.51,7.9-5.77,4.91-11.25,9.5-16.52,13.68-5.29,4.16-10.07,8.15-14.77,11.57-4.83,3.29-9.21,6.33-13.32,8.93-8.08,5.3-14.61,9.2-19.1,11.8-4.5,2.59-6.97,3.88-6.97,3.88,0,0,.97-2.67,2.94-7.5,1.97-4.83,4.92-11.81,8.9-20.37,1.93-4.33,4.23-8.96,6.66-14.02,2.19-5.25,4.76-10.71,7.37-16.62,2.62-5.89,5.54-12.01,8.62-18.4,3.09-6.39,5.79-13.38,9-20.37,1.54-3.54,3.2-7.07,4.84-10.69,1.63-3.63,3.46-7.2,4.87-11.06,3.06-7.6,6.28-15.34,9.68-23.19,1.78-3.9,3.26-7.95,4.75-12.04,1.49-4.1,3.07-8.19,4.66-12.31.8-2.06,1.6-4.13,2.4-6.2.82-2.07,1.73-4.11,2.35-6.26,1.37-4.25,2.75-8.53,4.22-12.79,1.47-4.26,2.89-8.58,4.45-12.85,1.22-4.35,2.45-8.73,3.69-13.14,1.29-4.36,2.6-8.75,3.91-13.16,1.03-4.43,2.06-8.89,3.09-13.36.96-4.47,2.36-8.88,3.16-13.37.73-4.51,1.57-8.99,2.42-13.48l1.28-6.74c.46-2.25.58-4.51.91-6.76l1.73-13.52.5-3.37.21-3.38.44-6.75c.19-4.5.93-9,.9-13.47-.1-8.94.64-17.92-.07-26.75-.31-17.77-2.66-35.18-5.43-52.19-.88-4.21-1.61-8.45-2.38-12.66-.9-4.17-2-8.26-2.92-12.39-.48-2.06-.96-4.11-1.44-6.15-.58-2.02-1.15-4.03-1.72-6.02-1.18-3.98-2.19-8.01-3.38-11.93-4.88-15.65-10.38-30.49-15.98-44.31-5.83-13.67-11.55-26.42-17.16-37.66-5.6-11.22-10.81-21.13-15.35-29.25-2.22-4.12-4.37-7.67-6.14-10.93-1.87-3.19-3.45-5.91-4.74-8.11-2.6-4.45-4.09-6.83-4.09-6.83Z"/>
  <path class="cls-3" d="M1276.18,1434.59s-.66-.22-1.95-.64c-1.28-.44-3.23-1.08-5.64-2.09-4.87-1.96-11.94-5.07-20.46-9.86-8.65-4.67-18.63-11.13-29.64-19.37-11.05-8.2-22.64-18.6-34.58-30.92-11.69-12.5-23.48-27.12-34.34-43.97-2.74-4.19-5.19-8.64-7.8-13.1-1.29-2.24-2.59-4.5-3.9-6.77-1.16-2.35-2.32-4.71-3.49-7.09-2.3-4.78-4.78-9.58-6.91-14.59-2.03-5.05-4.12-10.15-6.09-15.36-7.51-20.92-13.62-43.53-16.12-67.03-.76-5.86-1.57-11.76-1.69-17.7-.3-5.93-.54-11.9-.69-17.88-.17-3,.03-5.97.13-8.95l.4-8.95.49-8.96.25-4.48.55-4.43,2.46-17.68c.48-2.93.71-5.92,1.42-8.78l1.96-8.62c1.3-5.74,2.62-11.47,4.04-17.14.61-2.87,1.65-5.57,2.49-8.35.89-2.75,1.79-5.5,2.68-8.24,1.84-5.45,3.67-10.88,5.5-16.29,2.23-5.2,4.45-10.37,6.65-15.52,2.22-5.12,4.51-10.18,6.77-15.18,2.52-4.85,5.17-9.59,7.73-14.31,2.55-4.72,5.17-9.35,7.76-13.91,2.56-4.58,5.61-8.77,8.41-13.05,2.84-4.25,5.65-8.44,8.5-12.52,1.41-2.04,2.82-4.07,4.21-6.09,1.36-2.04,3.01-3.85,4.48-5.75,6.03-7.54,11.98-14.75,17.8-21.63,2.85-3.49,5.93-6.67,8.98-9.76,3.05-3.1,5.98-6.16,8.95-9.08,2.96-2.93,5.81-5.81,8.67-8.56,2.87-2.74,5.53-5.52,8.51-7.9,5.77-4.91,11.25-9.5,16.52-13.68,5.3-4.16,10.07-8.15,14.77-11.57,4.84-3.29,9.22-6.33,13.32-8.93,8.08-5.3,14.61-9.2,19.11-11.8,4.5-2.59,6.97-3.88,6.97-3.88,0,0-.97,2.67-2.94,7.5-1.97,4.83-4.92,11.81-8.9,20.37-1.93,4.33-4.23,8.96-6.66,14.02-2.19,5.25-4.76,10.71-7.37,16.62-2.62,5.89-5.54,12.01-8.62,18.4-3.09,6.39-5.79,13.38-9,20.37-1.54,3.54-3.2,7.07-4.84,10.69-1.63,3.63-3.46,7.2-4.87,11.07-3.06,7.6-6.28,15.34-9.69,23.19-1.78,3.9-3.26,7.95-4.75,12.04-1.49,4.1-3.07,8.19-4.66,12.31-.8,2.06-1.6,4.13-2.4,6.2-.82,2.07-1.73,4.11-2.35,6.26-1.37,4.25-2.75,8.53-4.22,12.79-1.47,4.26-2.89,8.58-4.46,12.85-1.22,4.35-2.45,8.73-3.69,13.14-1.29,4.36-2.6,8.75-3.91,13.16-1.03,4.43-2.06,8.89-3.09,13.36-.96,4.47-2.36,8.88-3.16,13.37-.73,4.51-1.57,8.99-2.42,13.48l-1.28,6.74c-.46,2.25-.58,4.51-.91,6.76l-1.73,13.52-.49,3.37-.21,3.38-.43,6.75c-.19,4.5-.93,9-.91,13.47.1,8.94-.64,17.92.07,26.75.31,17.77,2.66,35.18,5.43,52.19.88,4.21,1.61,8.45,2.38,12.66.9,4.17,2,8.26,2.92,12.39.48,2.06.96,4.11,1.44,6.15.58,2.02,1.15,4.03,1.72,6.02,1.18,3.98,2.19,8.01,3.38,11.93,4.88,15.65,10.38,30.49,15.98,44.31,5.83,13.67,11.55,26.42,17.15,37.65,5.6,11.22,10.81,21.13,15.35,29.25,2.22,4.12,4.37,7.67,6.14,10.93,1.87,3.19,3.45,5.91,4.74,8.11,2.6,4.45,4.09,6.83,4.09,6.83Z"/>
  <path class="cls-5" d="M1808.83,1786.4c-60.05-2.62-122.02-4-185.41-4-391.84,0-730.05,52.44-887.7,128.28,69.96,33.66,175.52,62.7,305.52,84.61,20.19-102.63,341.92-187.31,767.59-208.89Z"/>
  <path class="cls-1" d="M1216.77,2639.74c-20.44-49.22-42.14-97.33-65.02-144.27-8.78-18.01-24.45-29.8-42.39-32.3-61.87-8.67-123.74-17.34-185.62-26.01-17.97-2.51-36.16,3.82-49.57,16.85-37.42,36.41-75.62,71.09-114.48,104.03-13.26,11.26-22.45,26.47-26.19,43.39-31.52,142.52-75.94,281.97-132.74,416.62-11.71,27.8.44,60.21,27.93,72.68,118.12,53.03,236.23,106.05,354.35,159.08,27.46,12.47,62-4.53,76.25-38.32,69.78-165.42,124.07-336.84,162.21-512.06,4.46-20.49,2.77-41.64-4.73-59.69ZM961.34,2533.87c4-22.76,23.91-38.62,44.88-35.35,20.96,3.28,34.97,25.09,30.83,48.64-4.13,23.55-24.72,39.28-45.55,35.21-20.84-4.07-34.15-25.75-30.17-48.5Z"/>
  <path class="cls-2" d="M1098.64,2431.51c-61.28-12.16-122.57-24.31-183.85-36.47-17.8-3.52-36.32,1.77-50.44,14.02-39.42,34.23-79.52,66.7-120.18,97.39-13.88,10.49-23.91,25.16-28.61,41.84-39.53,140.51-91.76,277.22-156.09,408.45-13.26,27.1-2.96,60.13,23.77,74.15,114.93,59.62,229.86,119.24,344.79,178.87,26.71,14,62.16-1.01,78.3-33.95,79.03-161.21,142.92-329.29,190.91-502.07,5.62-20.21,5.12-41.42-1.35-59.86-17.62-50.3-36.57-99.56-56.76-147.72-7.75-18.48-22.73-31.13-40.49-34.64ZM974.23,2543.86c-20.58-5.24-32.64-27.64-27.37-50.13,5.28-22.5,26.06-37.21,46.81-32.75,20.75,4.46,33.49,27.02,28.03,50.31-5.46,23.28-26.9,37.81-47.47,32.58Z"/>
  <path class="cls-4" d="M1041.04,1995.37l30.42,4.7v-2.58c0-12.32-6.24-23.56-16.7-30.07-10.46-6.51-23.3-7.15-34.35-1.72l-21.09,10.37c-25.02,12.3-40.73,38.25-40.03,66.12l11.62,462.39c.2,8.15,6.88,14.62,14.99,14.62.13,0,.26,0,.38,0,8.28-.21,14.83-7.09,14.62-15.37l-11.62-462.39c-.41-16.2,8.73-31.29,23.27-38.44l21.09-10.37c2.35-1.16,4.3-.33,5.25.26.65.41,1.59,1.19,2.13,2.48Z"/>
  <path class="cls-12" d="M491.16,2101.82c3.22,0,3.22-5,0-5s-3.22,5,0,5h0Z"/>
</svg>